<svg width="64" height="64" viewBox="0 0 64 64" fill="none" xmlns="http://www.w3.org/2000/svg">
<g clip-path="url(#clip0_1_55)">
<path d="M45.3333 8.90666C49.3554 11.2289 52.7012 14.5614 55.0395 18.5741C57.3778 22.5869 58.6276 27.1407 58.6651 31.7849C58.7026 36.4291 57.5266 41.0025 55.2534 45.0525C52.9802 49.1025 49.6886 52.4886 45.7046 54.8755C41.7206 57.2625 37.1823 58.5675 32.5389 58.6615C27.8955 58.7555 23.3081 57.6351 19.2308 55.4113C15.1535 53.1875 11.7277 49.9374 9.29244 45.9827C6.85723 42.028 5.49709 37.5059 5.34666 32.864L5.33333 32L5.34666 31.136C5.496 26.5306 6.83612 22.0426 9.23637 18.1093C11.6366 14.1761 15.0151 10.9319 19.0424 8.69302C23.0697 6.45417 27.6084 5.29706 32.216 5.3345C36.8236 5.37194 41.3429 6.60266 45.3333 8.90666ZM40.5333 38.096C40.0283 37.601 39.3474 37.3268 38.6403 37.3338C37.9331 37.3408 37.2578 37.6284 36.7627 38.1333C36.1419 38.7671 35.4009 39.2706 34.5831 39.6143C33.7653 39.958 32.8871 40.1351 32 40.1351C31.1129 40.1351 30.2347 39.958 29.4169 39.6143C28.5991 39.2706 27.8581 38.7671 27.2373 38.1333C26.7397 37.6401 26.068 37.3625 25.3673 37.3605C24.6667 37.3586 23.9934 37.6325 23.4931 38.123C22.9928 38.6135 22.7057 39.2812 22.6937 39.9818C22.6818 40.6823 22.946 41.3594 23.4293 41.8667C24.5466 43.0068 25.8801 43.9125 27.3518 44.5308C28.8235 45.1492 30.4037 45.4676 32 45.4676C33.5963 45.4676 35.1765 45.1492 36.6482 44.5308C38.1199 43.9125 39.4534 43.0068 40.5707 41.8667C41.0657 41.3617 41.3398 40.6807 41.3328 39.9736C41.3258 39.2665 41.0382 38.5911 40.5333 38.096ZM24.0267 24L23.688 24.0187C23.0131 24.0989 22.3943 24.4339 21.958 24.9551C21.5218 25.4763 21.301 26.1444 21.3409 26.8229C21.3807 27.5015 21.6781 28.1392 22.1723 28.6057C22.6666 29.0723 23.3203 29.3326 24 29.3333L24.3387 29.3147C25.0136 29.2344 25.6324 28.8994 26.0686 28.3782C26.5049 27.857 26.7256 27.1889 26.6858 26.5104C26.646 25.8319 26.3485 25.1942 25.8543 24.7276C25.3601 24.261 24.7063 24.0008 24.0267 24ZM40.0267 24L39.688 24.0187C39.0131 24.0989 38.3943 24.4339 37.958 24.9551C37.5218 25.4763 37.301 26.1444 37.3409 26.8229C37.3807 27.5015 37.6781 28.1392 38.1723 28.6057C38.6666 29.0723 39.3203 29.3326 40 29.3333L40.3387 29.3147C41.0136 29.2344 41.6324 28.8994 42.0686 28.3782C42.5049 27.857 42.7256 27.1889 42.6858 26.5104C42.646 25.8319 42.3485 25.1942 41.8543 24.7276C41.3601 24.261 40.7063 24.0008 40.0267 24Z" fill="#F77B35"/>
</g>
<defs>
<clipPath id="clip0_1_55">
<rect width="64" height="64" fill="white"/>
</clipPath>
</defs>
</svg>
