<svg width="48" height="48" viewBox="0 0 48 48" fill="none" xmlns="http://www.w3.org/2000/svg">
<path opacity="0.4" d="M24 44C35.046 44 44 35.046 44 24C44 12.954 35.046 4 24 4C12.954 4 4 12.954 4 24C4 35.046 12.954 44 24 44Z" fill="#A7ADAF"/>
<path d="M26.12 24L30.72 19.4C31.3 18.82 31.3 17.86 30.72 17.28C30.4377 17.001 30.0568 16.8446 29.66 16.8446C29.2631 16.8446 28.8822 17.001 28.6 17.28L24 21.88L19.4 17.28C19.1177 17.001 18.7368 16.8446 18.34 16.8446C17.9431 16.8446 17.5622 17.001 17.28 17.28C16.7 17.86 16.7 18.82 17.28 19.4L21.88 24L17.28 28.6C16.7 29.18 16.7 30.14 17.28 30.72C17.58 31.02 17.96 31.16 18.34 31.16C18.72 31.16 19.1 31.02 19.4 30.72L24 26.12L28.6 30.72C28.9 31.02 29.28 31.16 29.66 31.16C30.04 31.16 30.42 31.02 30.72 30.72C31.3 30.14 31.3 29.18 30.72 28.6L26.12 24Z" fill="#A7ADAF"/>
</svg>
