<svg width="81" height="81" viewBox="0 0 81 81" fill="none" xmlns="http://www.w3.org/2000/svg">
<rect x="0.599976" width="80.3" height="80.3" rx="40.15" fill="url(#paint0_linear_38_49)" fill-opacity="0.6"/>
<g clip-path="url(#clip0_38_49)">
<g filter="url(#filter0_ii_38_49)">
<path d="M13.75 38.3613C13.75 24.1613 25.2614 12.6499 39.4614 12.6499H42.1443C56.8383 12.6499 68.75 24.5617 68.75 39.2556V41.0442C68.75 55.7382 56.8383 67.6499 42.1443 67.6499H41.25C26.0622 67.6499 13.75 55.3377 13.75 40.1499V38.3613Z" fill="url(#paint1_radial_38_49)"/>
</g>
<g filter="url(#filter1_d_38_49)">
<g filter="url(#filter2_i_38_49)">
<path d="M31.5244 28.3003C35.9079 28.3003 39.4614 31.8538 39.4614 36.2373C39.4614 40.6208 35.9079 44.1743 31.5244 44.1743C27.1409 44.1743 23.5874 40.6208 23.5874 36.2373C23.5874 31.8538 27.1409 28.3003 31.5244 28.3003Z" fill="#FAFAFA"/>
</g>
<g filter="url(#filter3_d_38_49)">
<path d="M35.742 36.2395C35.742 38.57 33.8528 40.4592 31.5223 40.4592C29.1918 40.4592 27.3026 38.57 27.3026 36.2395C27.3026 33.9091 29.1918 32.0198 31.5223 32.0198C33.8528 32.0198 35.742 33.9091 35.742 36.2395Z" fill="#2C2F36"/>
</g>
</g>
<g filter="url(#filter4_d_38_49)">
<g filter="url(#filter5_i_38_49)">
<path d="M50.752 28.3003C55.1355 28.3003 58.689 31.8538 58.689 36.2373C58.689 40.6208 55.1355 44.1743 50.752 44.1743C46.3685 44.1743 42.815 40.6208 42.815 36.2373C42.815 31.8538 46.3685 28.3003 50.752 28.3003Z" fill="#FAFAFA"/>
</g>
<g filter="url(#filter6_d_38_49)">
<path d="M54.9696 36.2395C54.9696 38.57 53.0804 40.4592 50.7499 40.4592C48.4194 40.4592 46.5302 38.57 46.5302 36.2395C46.5302 33.9091 48.4194 32.0198 50.7499 32.0198C53.0804 32.0198 54.9696 33.9091 54.9696 36.2395Z" fill="#2C2F36"/>
</g>
</g>
<g filter="url(#filter7_dii_38_49)">
<path d="M42.371 30.4259C41.6618 30.0105 41.4166 29.0913 41.9223 28.4435C42.5172 27.6817 43.2097 26.9986 43.9835 26.4125C45.1537 25.5262 46.4871 24.879 47.9075 24.508C49.3278 24.1369 50.8075 24.0493 52.2616 24.25C53.2232 24.3828 54.1614 24.6399 55.0528 25.0134C55.8109 25.331 56.0463 26.2529 55.6309 26.962C55.2155 27.6711 54.3062 27.8948 53.5338 27.6141C52.9916 27.4172 52.4289 27.2774 51.8547 27.1982C50.7876 27.0509 49.7019 27.1152 48.6598 27.3874C47.6175 27.6597 46.6391 28.1346 45.7803 28.785C45.3182 29.1349 44.8959 29.532 44.5191 29.969C43.9828 30.5916 43.0802 30.8412 42.371 30.4259Z" fill="url(#paint2_linear_38_49)"/>
</g>
<g filter="url(#filter8_dii_38_49)">
<path d="M39.8672 30.4259C40.5764 30.0105 40.8219 29.0913 40.3161 28.4435C39.7212 27.6817 39.0288 26.9986 38.2547 26.4125C37.0845 25.5262 35.7512 24.879 34.3308 24.508C32.9105 24.1369 31.4309 24.0493 29.9767 24.25C29.0151 24.3828 28.077 24.6399 27.1855 25.0134C26.4275 25.331 26.192 26.2529 26.6074 26.962C27.0228 27.6711 27.932 27.8948 28.7045 27.6141C29.2467 27.4172 29.8095 27.2774 30.3837 27.1982C31.4508 27.0509 32.5364 27.1152 33.5786 27.3874C34.6209 27.6597 35.5993 28.1346 36.4579 28.785C36.92 29.1349 37.3426 29.532 37.7191 29.969C38.2556 30.5916 39.1582 30.8412 39.8672 30.4259Z" fill="url(#paint3_linear_38_49)"/>
</g>
<g filter="url(#filter9_d_38_49)">
<path d="M62.1545 45.5159H20.5691C19.3961 45.5159 18.4451 46.4668 18.4451 47.6399V59.0423C18.4451 60.2153 19.3961 61.1663 20.5691 61.1663H62.1545C63.3275 61.1663 64.2785 60.2153 64.2785 59.0423V47.6399C64.2785 46.4668 63.3275 45.5159 62.1545 45.5159Z" fill="url(#paint4_linear_38_49)"/>
</g>
<g filter="url(#filter10_i_38_49)">
<path d="M29.5651 59.8666C28.411 59.8666 27.4076 59.6341 26.5549 59.1689C25.7022 58.7125 25.0433 58.0709 24.5782 57.2439C24.1217 56.4171 23.8935 55.4653 23.8935 54.3888C23.8935 53.1915 24.1347 52.1579 24.617 51.2882C25.1079 50.4183 25.784 49.7549 26.6453 49.2986C27.5066 48.842 28.4842 48.6138 29.578 48.6138C30.7063 48.6138 31.6753 48.8248 32.4849 49.2469C33.2945 49.6688 33.9103 50.2459 34.3324 50.9781C34.7544 51.7016 34.9654 52.5154 34.9654 53.4198C34.9654 54.1692 34.8492 54.8151 34.6166 55.3578C34.3927 55.8917 34.0783 56.3008 33.6735 56.585C33.2687 56.8606 32.8079 56.9986 32.2911 56.9986C31.8346 56.9986 31.4643 56.8995 31.1801 56.7012C30.9003 56.5063 30.7248 56.2487 30.6537 55.9285C30.6517 55.9196 30.6438 55.9133 30.6347 55.9133C30.6283 55.9133 30.6223 55.9165 30.6187 55.9216C30.3876 56.2536 30.1268 56.5179 29.8364 56.7142C29.5522 56.9038 29.1905 56.9986 28.7512 56.9986C28.1138 56.9986 27.6143 56.7875 27.2525 56.3654C26.8994 55.9348 26.7228 55.3662 26.7228 54.66C26.7228 54.0485 26.8391 53.4931 27.0717 52.9934C27.3042 52.4852 27.6229 52.0848 28.0277 51.7919C28.4411 51.499 28.9105 51.3528 29.4359 51.3528C29.789 51.3528 30.0991 51.4259 30.3661 51.5724C30.6279 51.7159 30.8152 51.9173 30.9279 52.1769C30.932 52.1863 30.9413 52.1926 30.9515 52.1926C30.9641 52.1926 30.9747 52.1834 30.9766 52.1709L30.9992 52.0244C31.025 51.8523 31.0982 51.7231 31.2188 51.637C31.348 51.5422 31.5116 51.4948 31.7097 51.4948C31.9078 51.4948 32.0629 51.5509 32.1748 51.6627C32.2868 51.7747 32.3428 51.9299 32.3428 52.128C32.3428 52.214 32.3385 52.2786 32.3299 52.3216L31.9423 54.518C31.8992 54.7765 31.8777 54.9788 31.8777 55.1252C31.8777 55.375 31.9294 55.5643 32.0327 55.6936C32.1361 55.8228 32.304 55.8874 32.5366 55.8874C32.7088 55.8874 32.8811 55.8056 33.0534 55.6419C33.2256 55.4783 33.3677 55.2113 33.4797 54.8408C33.6003 54.4706 33.6606 53.9968 33.6606 53.4198C33.6606 52.6963 33.5055 52.0633 33.1955 51.5207C32.8854 50.9781 32.4246 50.556 31.8131 50.2546C31.2016 49.953 30.4566 49.8023 29.578 49.8023C28.7512 49.8023 28.0148 49.9832 27.3688 50.3449C26.7228 50.6982 26.2147 51.2236 25.8443 51.9211C25.474 52.6102 25.2888 53.4328 25.2888 54.3888C25.2888 55.25 25.4567 56.0037 25.7926 56.6496C26.1372 57.2957 26.6281 57.7952 27.2655 58.1482C27.9114 58.5015 28.678 58.6781 29.5651 58.6781C30.125 58.6781 30.6073 58.6177 31.0121 58.4972C31.4255 58.3852 31.826 58.2043 32.2136 57.9546C32.3514 57.8683 32.4806 57.8254 32.6012 57.8254C32.7734 57.8254 32.9156 57.8855 33.0275 58.0063C33.1481 58.1268 33.2084 58.269 33.2084 58.4326C33.2084 58.6479 33.105 58.8288 32.8983 58.9752C32.5538 59.225 32.0887 59.436 31.503 59.6082C30.9174 59.7806 30.2714 59.8666 29.5651 59.8666ZM29.0613 55.8874C29.4058 55.8874 29.6986 55.7841 29.9398 55.5773C30.1896 55.362 30.3747 55.0863 30.4953 54.7505C30.6245 54.406 30.6891 54.0442 30.6891 53.6653C30.6891 53.2691 30.5987 52.972 30.4178 52.7739C30.2455 52.5758 30.0001 52.4767 29.6814 52.4767C29.3627 52.4767 29.0871 52.5843 28.8546 52.7996C28.622 53.0151 28.4454 53.2906 28.3249 53.6266C28.2043 53.9624 28.144 54.3069 28.144 54.66C28.144 55.0304 28.2258 55.3276 28.3895 55.5516C28.5531 55.7754 28.777 55.8874 29.0613 55.8874Z" fill="white"/>
<path d="M37.1804 54.9959C37.0255 54.9959 36.892 54.9443 36.78 54.8408C36.6767 54.7375 36.6121 54.5868 36.5862 54.3887L36.0177 49.8669C36.0091 49.8239 36.0048 49.7636 36.0048 49.686C36.0048 49.3674 36.1169 49.1132 36.3407 48.9238C36.5647 48.7342 36.8446 48.6396 37.1804 48.6396C37.5509 48.6396 37.848 48.7514 38.0718 48.9755C38.3046 49.1995 38.3949 49.5009 38.3433 49.8798L37.762 54.3887C37.7447 54.5868 37.6801 54.7375 37.5681 54.8408C37.4648 54.9443 37.3356 54.9959 37.1804 54.9959ZM37.1804 57.8899C36.8618 57.8899 36.5991 57.7864 36.3923 57.5798C36.1857 57.3645 36.0823 57.0976 36.0823 56.7788C36.0823 56.4602 36.1857 56.1975 36.3923 55.9906C36.5991 55.7753 36.8618 55.6678 37.1804 55.6678C37.4993 55.6678 37.762 55.7753 37.9685 55.9906C38.1754 56.1975 38.2786 56.4602 38.2786 56.7788C38.2786 57.0976 38.1754 57.3645 37.9685 57.5798C37.762 57.7864 37.4993 57.8899 37.1804 57.8899Z" fill="white"/>
<path d="M43.3659 57.5668C43.1678 57.8941 42.9223 58.0578 42.6295 58.0578C42.4486 58.0578 42.2892 57.9889 42.1515 57.851C42.0222 57.7218 41.9576 57.5583 41.9576 57.3602C41.9576 57.1966 42.0093 57.0242 42.1128 56.8433L46.686 48.9497C46.8669 48.6224 47.1082 48.4587 47.4095 48.4587C47.5991 48.4587 47.7585 48.5276 47.8876 48.6653C48.0255 48.7946 48.0944 48.9582 48.0944 49.1563C48.0944 49.32 48.0427 49.4921 47.9394 49.673L43.3659 57.5668ZM41.6864 54.1302C40.9457 54.1302 40.3642 53.8935 39.9423 53.4197C39.5289 52.9374 39.3221 52.2397 39.3221 51.3268C39.3221 50.4396 39.5331 49.7593 39.955 49.2855C40.3771 48.8033 40.9542 48.562 41.6864 48.562C42.4271 48.562 43.0042 48.8033 43.4176 49.2855C43.8395 49.7593 44.0505 50.4439 44.0505 51.3398C44.0505 52.2526 43.8395 52.9459 43.4176 53.4197C43.0042 53.8935 42.4271 54.1302 41.6864 54.1302ZM41.6864 52.9158C41.9534 52.9158 42.1472 52.7952 42.2677 52.5542C42.3882 52.313 42.4486 51.9081 42.4486 51.3398C42.4486 50.7971 42.384 50.4052 42.2547 50.164C42.1342 49.9142 41.9446 49.7895 41.6864 49.7895C41.428 49.7895 41.2384 49.91 41.1179 50.1512C40.9973 50.3922 40.937 50.7884 40.937 51.3398C40.937 51.8996 40.9973 52.3043 41.1179 52.5542C41.2384 52.7952 41.428 52.9158 41.6864 52.9158ZM48.3528 57.9026C47.6121 57.9026 47.0306 57.6659 46.6087 57.1921C46.1953 56.7099 45.9885 56.0123 45.9885 55.0992C45.9885 54.2036 46.1953 53.5187 46.6087 53.045C47.0306 52.5714 47.6121 52.3344 48.3528 52.3344C49.0848 52.3344 49.6619 52.5757 50.084 53.0579C50.5061 53.5317 50.7169 54.2165 50.7169 55.1122C50.7169 56.0165 50.5061 56.7099 50.084 57.1921C49.6706 57.6659 49.0935 57.9026 48.3528 57.9026ZM48.3528 56.6884C48.6198 56.6884 48.8136 56.5677 48.9341 56.3266C49.0546 56.0854 49.115 55.6805 49.115 55.1122C49.115 54.5608 49.0504 54.1647 48.9211 53.9236C48.8006 53.6739 48.611 53.5489 48.3528 53.5489C48.0944 53.5489 47.9005 53.6739 47.7713 53.9236C47.6508 54.1647 47.5904 54.5608 47.5904 55.1122C47.5904 55.6805 47.6508 56.0854 47.7713 56.3266C47.892 56.5677 48.0856 56.6884 48.3528 56.6884Z" fill="white"/>
<path d="M58.6121 55.1639C58.6121 55.8615 58.3709 56.4515 57.8886 56.934C57.5638 57.2588 57.1598 57.5048 56.6768 57.6716C56.2751 57.8104 55.9636 58.1623 55.9636 58.5875C55.9636 58.8201 55.8903 59.0052 55.7441 59.1431C55.6061 59.2896 55.421 59.3627 55.1885 59.3627C54.9644 59.3627 54.7793 59.2896 54.6329 59.1431C54.4864 59.0052 54.4133 58.8201 54.4133 58.5875C54.4133 58.1925 54.1104 57.8681 53.7238 57.7858C53.4895 57.7359 53.2586 57.6716 53.0309 57.5929C52.5916 57.4377 52.2039 57.2396 51.8681 56.9986C51.7304 56.9123 51.6314 56.8177 51.571 56.7142C51.5193 56.6022 51.4934 56.4645 51.4934 56.3008C51.4934 56.0855 51.558 55.8961 51.6873 55.7325C51.825 55.5688 51.9801 55.487 52.1523 55.487C52.316 55.487 52.5185 55.5558 52.7595 55.6936C53.1557 55.9261 53.5304 56.0985 53.8837 56.2105C54.2452 56.3138 54.6199 56.3654 55.0076 56.3654C55.5243 56.3654 55.9205 56.2706 56.1961 56.0812C56.4718 55.8832 56.6095 55.6075 56.6095 55.2545C56.6095 55.0389 56.5277 54.8625 56.364 54.7246C56.2091 54.5869 56.0153 54.4791 55.7827 54.4017C55.5502 54.3242 55.2142 54.2251 54.7751 54.1046C54.1377 53.9409 53.6123 53.7773 53.1989 53.6136C52.7855 53.45 52.428 53.1915 52.1266 52.8385C51.8337 52.4852 51.6873 52.0117 51.6873 51.4172C51.6873 50.7196 51.9327 50.1211 52.4237 49.6214C52.7658 49.2794 53.1787 49.022 53.6623 48.8496C54.0632 48.7066 54.3744 48.3546 54.3744 47.929C54.3744 47.6964 54.4478 47.5113 54.5942 47.3736C54.7406 47.2271 54.9258 47.1538 55.1496 47.1538C55.3823 47.1538 55.5674 47.2271 55.7052 47.3736C55.8516 47.5113 55.9249 47.6964 55.9249 47.929C55.9249 48.3359 56.229 48.6723 56.6194 48.7866C57.1385 48.9389 57.6349 49.1825 58.1082 49.5181C58.2374 49.6042 58.3279 49.7033 58.3796 49.8153C58.4397 49.9273 58.4699 50.0608 58.4699 50.2157C58.4699 50.4312 58.4011 50.6206 58.2633 50.7843C58.1341 50.9479 57.9834 51.0297 57.811 51.0297C57.7162 51.0297 57.6259 51.0168 57.5398 50.9911C57.4623 50.9651 57.3502 50.9092 57.2038 50.8229C56.8508 50.5991 56.5319 50.4312 56.2478 50.3192C55.9721 50.2072 55.632 50.1513 55.2272 50.1513C54.7621 50.1513 54.3874 50.2546 54.1032 50.4612C53.8276 50.668 53.6898 50.9437 53.6898 51.2882C53.6898 51.5292 53.7717 51.7273 53.9353 51.8825C54.099 52.0289 54.3056 52.1452 54.5553 52.2312C54.8053 52.3173 55.154 52.4164 55.6019 52.5284C56.2306 52.6833 56.743 52.8427 57.1392 53.0064C57.5441 53.1613 57.8886 53.4155 58.1728 53.7686C58.4657 54.1131 58.6121 54.5781 58.6121 55.1639Z" fill="white"/>
</g>
</g>
<defs>
<filter id="filter0_ii_38_49" x="11.2907" y="8.62551" width="57.4593" height="62.6016" filterUnits="userSpaceOnUse" color-interpolation-filters="sRGB">
<feFlood flood-opacity="0" result="BackgroundImageFix"/>
<feBlend mode="normal" in="SourceGraphic" in2="BackgroundImageFix" result="shape"/>
<feColorMatrix in="SourceAlpha" type="matrix" values="0 0 0 0 0 0 0 0 0 0 0 0 0 0 0 0 0 0 127 0" result="hardAlpha"/>
<feOffset dy="-4.02439"/>
<feGaussianBlur stdDeviation="3.46545"/>
<feComposite in2="hardAlpha" operator="arithmetic" k2="-1" k3="1"/>
<feColorMatrix type="matrix" values="0 0 0 0 0.943639 0 0 0 0 0.223611 0 0 0 0 0.958333 0 0 0 0.44 0"/>
<feBlend mode="normal" in2="shape" result="effect1_innerShadow_38_49"/>
<feColorMatrix in="SourceAlpha" type="matrix" values="0 0 0 0 0 0 0 0 0 0 0 0 0 0 0 0 0 0 127 0" result="hardAlpha"/>
<feOffset dx="-2.45935" dy="3.57724"/>
<feGaussianBlur stdDeviation="3.46545"/>
<feComposite in2="hardAlpha" operator="arithmetic" k2="-1" k3="1"/>
<feColorMatrix type="matrix" values="0 0 0 0 1 0 0 0 0 1 0 0 0 0 1 0 0 0 0.59 0"/>
<feBlend mode="normal" in2="effect1_innerShadow_38_49" result="effect2_innerShadow_38_49"/>
</filter>
<filter id="filter1_d_38_49" x="20.3788" y="25.7672" width="22.2911" height="22.2912" filterUnits="userSpaceOnUse" color-interpolation-filters="sRGB">
<feFlood flood-opacity="0" result="BackgroundImageFix"/>
<feColorMatrix in="SourceAlpha" type="matrix" values="0 0 0 0 0 0 0 0 0 0 0 0 0 0 0 0 0 0 127 0" result="hardAlpha"/>
<feOffset dy="0.675489"/>
<feGaussianBlur stdDeviation="1.60429"/>
<feColorMatrix type="matrix" values="0 0 0 0 0 0 0 0 0 0 0 0 0 0 0 0 0 0 0.25 0"/>
<feBlend mode="normal" in2="BackgroundImageFix" result="effect1_dropShadow_38_49"/>
<feBlend mode="normal" in="SourceGraphic" in2="effect1_dropShadow_38_49" result="shape"/>
</filter>
<filter id="filter2_i_38_49" x="23.5874" y="27.5066" width="15.874" height="16.6677" filterUnits="userSpaceOnUse" color-interpolation-filters="sRGB">
<feFlood flood-opacity="0" result="BackgroundImageFix"/>
<feBlend mode="normal" in="SourceGraphic" in2="BackgroundImageFix" result="shape"/>
<feColorMatrix in="SourceAlpha" type="matrix" values="0 0 0 0 0 0 0 0 0 0 0 0 0 0 0 0 0 0 127 0" result="hardAlpha"/>
<feOffset dy="-0.793699"/>
<feGaussianBlur stdDeviation="1.98425"/>
<feComposite in2="hardAlpha" operator="arithmetic" k2="-1" k3="1"/>
<feColorMatrix type="matrix" values="0 0 0 0 0 0 0 0 0 0 0 0 0 0 0 0 0 0 0.25 0"/>
<feBlend mode="normal" in2="shape" result="effect1_innerShadow_38_49"/>
</filter>
<filter id="filter3_d_38_49" x="24.2697" y="19.2816" width="19.3578" height="21.1777" filterUnits="userSpaceOnUse" color-interpolation-filters="sRGB">
<feFlood flood-opacity="0" result="BackgroundImageFix"/>
<feColorMatrix in="SourceAlpha" type="matrix" values="0 0 0 0 0 0 0 0 0 0 0 0 0 0 0 0 0 0 127 0" result="hardAlpha"/>
<feOffset dx="2.42633" dy="-7.27898"/>
<feGaussianBlur stdDeviation="2.72961"/>
<feComposite in2="hardAlpha" operator="out"/>
<feColorMatrix type="matrix" values="0 0 0 0 0.462111 0 0 0 0 0.203767 0 0 0 0 0.504167 0 0 0 0.35 0"/>
<feBlend mode="normal" in2="BackgroundImageFix" result="effect1_dropShadow_38_49"/>
<feBlend mode="normal" in="SourceGraphic" in2="effect1_dropShadow_38_49" result="shape"/>
</filter>
<filter id="filter4_d_38_49" x="39.6065" y="25.7672" width="22.2911" height="22.2912" filterUnits="userSpaceOnUse" color-interpolation-filters="sRGB">
<feFlood flood-opacity="0" result="BackgroundImageFix"/>
<feColorMatrix in="SourceAlpha" type="matrix" values="0 0 0 0 0 0 0 0 0 0 0 0 0 0 0 0 0 0 127 0" result="hardAlpha"/>
<feOffset dy="0.675489"/>
<feGaussianBlur stdDeviation="1.60429"/>
<feColorMatrix type="matrix" values="0 0 0 0 0 0 0 0 0 0 0 0 0 0 0 0 0 0 0.25 0"/>
<feBlend mode="normal" in2="BackgroundImageFix" result="effect1_dropShadow_38_49"/>
<feBlend mode="normal" in="SourceGraphic" in2="effect1_dropShadow_38_49" result="shape"/>
</filter>
<filter id="filter5_i_38_49" x="42.8151" y="27.5066" width="15.874" height="16.6677" filterUnits="userSpaceOnUse" color-interpolation-filters="sRGB">
<feFlood flood-opacity="0" result="BackgroundImageFix"/>
<feBlend mode="normal" in="SourceGraphic" in2="BackgroundImageFix" result="shape"/>
<feColorMatrix in="SourceAlpha" type="matrix" values="0 0 0 0 0 0 0 0 0 0 0 0 0 0 0 0 0 0 127 0" result="hardAlpha"/>
<feOffset dy="-0.793699"/>
<feGaussianBlur stdDeviation="1.98425"/>
<feComposite in2="hardAlpha" operator="arithmetic" k2="-1" k3="1"/>
<feColorMatrix type="matrix" values="0 0 0 0 0 0 0 0 0 0 0 0 0 0 0 0 0 0 0.25 0"/>
<feBlend mode="normal" in2="shape" result="effect1_innerShadow_38_49"/>
</filter>
<filter id="filter6_d_38_49" x="43.4974" y="19.2816" width="19.3578" height="21.1777" filterUnits="userSpaceOnUse" color-interpolation-filters="sRGB">
<feFlood flood-opacity="0" result="BackgroundImageFix"/>
<feColorMatrix in="SourceAlpha" type="matrix" values="0 0 0 0 0 0 0 0 0 0 0 0 0 0 0 0 0 0 127 0" result="hardAlpha"/>
<feOffset dx="2.42633" dy="-7.27898"/>
<feGaussianBlur stdDeviation="2.72961"/>
<feComposite in2="hardAlpha" operator="out"/>
<feColorMatrix type="matrix" values="0 0 0 0 0.462111 0 0 0 0 0.203767 0 0 0 0 0.504167 0 0 0 0.35 0"/>
<feBlend mode="normal" in2="BackgroundImageFix" result="effect1_dropShadow_38_49"/>
<feBlend mode="normal" in="SourceGraphic" in2="effect1_dropShadow_38_49" result="shape"/>
</filter>
<filter id="filter7_dii_38_49" x="36.9595" y="21.4621" width="26.2526" height="18.5585" filterUnits="userSpaceOnUse" color-interpolation-filters="sRGB">
<feFlood flood-opacity="0" result="BackgroundImageFix"/>
<feColorMatrix in="SourceAlpha" type="matrix" values="0 0 0 0 0 0 0 0 0 0 0 0 0 0 0 0 0 0 127 0" result="hardAlpha"/>
<feOffset dx="1.34146" dy="3.35366"/>
<feGaussianBlur stdDeviation="3.01829"/>
<feColorMatrix type="matrix" values="0 0 0 0 0.0313726 0 0 0 0 0.02 0 0 0 0 0.0352941 0 0 0 0.25 0"/>
<feBlend mode="normal" in2="BackgroundImageFix" result="effect1_dropShadow_38_49"/>
<feBlend mode="normal" in="SourceGraphic" in2="effect1_dropShadow_38_49" result="shape"/>
<feColorMatrix in="SourceAlpha" type="matrix" values="0 0 0 0 0 0 0 0 0 0 0 0 0 0 0 0 0 0 127 0" result="hardAlpha"/>
<feOffset dy="0.993676"/>
<feGaussianBlur stdDeviation="0.496838"/>
<feComposite in2="hardAlpha" operator="arithmetic" k2="-1" k3="1"/>
<feColorMatrix type="matrix" values="0 0 0 0 0.181961 0 0 0 0 0.116 0 0 0 0 0.204706 0 0 0 1 0"/>
<feBlend mode="normal" in2="shape" result="effect2_innerShadow_38_49"/>
<feColorMatrix in="SourceAlpha" type="matrix" values="0 0 0 0 0 0 0 0 0 0 0 0 0 0 0 0 0 0 127 0" result="hardAlpha"/>
<feOffset dy="-0.993676"/>
<feGaussianBlur stdDeviation="0.496838"/>
<feComposite in2="hardAlpha" operator="arithmetic" k2="-1" k3="1"/>
<feColorMatrix type="matrix" values="0 0 0 0 0.12549 0 0 0 0 0.08 0 0 0 0 0.141176 0 0 0 1 0"/>
<feBlend mode="normal" in2="effect2_innerShadow_38_49" result="effect3_innerShadow_38_49"/>
</filter>
<filter id="filter8_dii_38_49" x="21.7091" y="21.4621" width="26.2527" height="18.5585" filterUnits="userSpaceOnUse" color-interpolation-filters="sRGB">
<feFlood flood-opacity="0" result="BackgroundImageFix"/>
<feColorMatrix in="SourceAlpha" type="matrix" values="0 0 0 0 0 0 0 0 0 0 0 0 0 0 0 0 0 0 127 0" result="hardAlpha"/>
<feOffset dx="1.34146" dy="3.35366"/>
<feGaussianBlur stdDeviation="3.01829"/>
<feColorMatrix type="matrix" values="0 0 0 0 0.0313726 0 0 0 0 0.02 0 0 0 0 0.0352941 0 0 0 0.25 0"/>
<feBlend mode="normal" in2="BackgroundImageFix" result="effect1_dropShadow_38_49"/>
<feBlend mode="normal" in="SourceGraphic" in2="effect1_dropShadow_38_49" result="shape"/>
<feColorMatrix in="SourceAlpha" type="matrix" values="0 0 0 0 0 0 0 0 0 0 0 0 0 0 0 0 0 0 127 0" result="hardAlpha"/>
<feOffset dy="0.993676"/>
<feGaussianBlur stdDeviation="0.496838"/>
<feComposite in2="hardAlpha" operator="arithmetic" k2="-1" k3="1"/>
<feColorMatrix type="matrix" values="0 0 0 0 0.181961 0 0 0 0 0.116 0 0 0 0 0.204706 0 0 0 1 0"/>
<feBlend mode="normal" in2="shape" result="effect2_innerShadow_38_49"/>
<feColorMatrix in="SourceAlpha" type="matrix" values="0 0 0 0 0 0 0 0 0 0 0 0 0 0 0 0 0 0 127 0" result="hardAlpha"/>
<feOffset dy="-0.993676"/>
<feGaussianBlur stdDeviation="0.496838"/>
<feComposite in2="hardAlpha" operator="arithmetic" k2="-1" k3="1"/>
<feColorMatrix type="matrix" values="0 0 0 0 0.12549 0 0 0 0 0.08 0 0 0 0 0.141176 0 0 0 1 0"/>
<feBlend mode="normal" in2="effect2_innerShadow_38_49" result="effect3_innerShadow_38_49"/>
</filter>
<filter id="filter9_d_38_49" x="15.8739" y="38.8756" width="55.0894" height="24.9065" filterUnits="userSpaceOnUse" color-interpolation-filters="sRGB">
<feFlood flood-opacity="0" result="BackgroundImageFix"/>
<feColorMatrix in="SourceAlpha" type="matrix" values="0 0 0 0 0 0 0 0 0 0 0 0 0 0 0 0 0 0 127 0" result="hardAlpha"/>
<feOffset dx="2.05691" dy="-2.0122"/>
<feGaussianBlur stdDeviation="2.31402"/>
<feComposite in2="hardAlpha" operator="out"/>
<feColorMatrix type="matrix" values="0 0 0 0 0.462111 0 0 0 0 0.203767 0 0 0 0 0.504167 0 0 0 0.35 0"/>
<feBlend mode="normal" in2="BackgroundImageFix" result="effect1_dropShadow_38_49"/>
<feBlend mode="normal" in="SourceGraphic" in2="effect1_dropShadow_38_49" result="shape"/>
</filter>
<filter id="filter10_i_38_49" x="23.8936" y="46.7067" width="34.7186" height="13.16" filterUnits="userSpaceOnUse" color-interpolation-filters="sRGB">
<feFlood flood-opacity="0" result="BackgroundImageFix"/>
<feBlend mode="normal" in="SourceGraphic" in2="BackgroundImageFix" result="shape"/>
<feColorMatrix in="SourceAlpha" type="matrix" values="0 0 0 0 0 0 0 0 0 0 0 0 0 0 0 0 0 0 127 0" result="hardAlpha"/>
<feOffset dy="-0.447154"/>
<feGaussianBlur stdDeviation="0.335366"/>
<feComposite in2="hardAlpha" operator="arithmetic" k2="-1" k3="1"/>
<feColorMatrix type="matrix" values="0 0 0 0 0 0 0 0 0 0 0 0 0 0 0 0 0 0 0.25 0"/>
<feBlend mode="normal" in2="shape" result="effect1_innerShadow_38_49"/>
</filter>
<linearGradient id="paint0_linear_38_49" x1="40.75" y1="0" x2="40.75" y2="80.3" gradientUnits="userSpaceOnUse">
<stop stop-color="#EB694C"/>
<stop offset="1" stop-color="#B5266A"/>
</linearGradient>
<radialGradient id="paint1_radial_38_49" cx="0" cy="0" r="1" gradientUnits="userSpaceOnUse" gradientTransform="translate(38.1199 16.2271) rotate(86.5167) scale(51.518)">
<stop stop-color="#FF9E0C"/>
<stop offset="1" stop-color="#FF0761"/>
</radialGradient>
<linearGradient id="paint2_linear_38_49" x1="60.3788" y1="40.974" x2="41.087" y2="29.6738" gradientUnits="userSpaceOnUse">
<stop stop-color="#2D1D32"/>
<stop offset="1" stop-color="#221526"/>
</linearGradient>
<linearGradient id="paint3_linear_38_49" x1="21.8595" y1="40.974" x2="41.1512" y2="29.6738" gradientUnits="userSpaceOnUse">
<stop stop-color="#2D1D32"/>
<stop offset="1" stop-color="#221526"/>
</linearGradient>
<linearGradient id="paint4_linear_38_49" x1="41.3618" y1="45.5159" x2="41.3618" y2="61.1663" gradientUnits="userSpaceOnUse">
<stop stop-color="#201721"/>
<stop offset="1" stop-color="#2B1F2C"/>
</linearGradient>
<clipPath id="clip0_38_49">
<rect width="55" height="55" fill="white" transform="translate(13.75 12.6499)"/>
</clipPath>
</defs>
</svg>
